<svg xmlns="http://www.w3.org/2000/svg" width="512" height="512" viewBox="262 269 500 500">
    <path fill="#1C6C78" d="M497.95 279.705C630.294 272.01 743.847 372.996 751.656 505.333C759.464 637.671 658.576 751.31 526.245 759.232C393.754 767.163 279.947 666.126 272.129 533.628C264.311 401.131 365.446 287.41 497.95 279.705ZM524.249 747.444C650.056 740.555 746.479 633.019 739.657 507.209C732.835 381.399 625.35 284.919 499.536 291.674C373.628 298.434 277.061 406.018 283.887 531.922C290.714 657.826 398.349 754.337 524.249 747.444Z"/>
    <path fill="#1C6C78" d="M504.293 654.881C502.011 647.144 493.617 634.391 488.916 627.449C475.525 608.081 461.21 589.368 446.019 571.376C428.925 550.869 408.509 529.6 399.526 504.015C391.96 482.462 391.026 456.868 396.422 434.707C403.833 404.2 423.168 377.938 450.098 361.801C477.365 345.002 510.306 340.057 541.303 348.109C572.311 355.925 598.198 376.46 614.38 403.863C623.951 420.115 629.564 438.39 630.766 457.212C633.498 501.953 612.854 529.583 585.66 561.455C567.414 582.841 548.581 605.906 533.297 629.442C530.42 633.871 520.602 650.261 519.768 654.422C528.354 659.259 532.051 667.251 526.62 676.209C524.049 680.487 519.86 683.546 515.002 684.693C497.847 688.581 486.165 665.738 504.293 654.881Z"/>
    <path fill="#8CE2C8" d="M519.768 654.422C528.354 659.259 532.051 667.251 526.62 676.209C524.049 680.487 519.86 683.546 515.002 684.693C497.847 688.581 486.165 665.738 504.293 654.881C505.916 659.746 509.435 665.105 512.637 669.083C514.318 665.885 519.03 657.455 519.768 654.422Z"/>
    <path fill="#FBFAFC" d="M503.209 384.751C545.962 379.941 584.499 410.754 589.211 453.519C593.923 496.283 563.021 534.748 520.247 539.362C477.61 543.962 439.297 513.181 434.599 470.556C429.902 427.93 460.595 389.546 503.209 384.751Z"/>
    <path fill="#1C6C78" d="M554.516 422.785C558.046 424.59 562.957 429.698 565.953 432.637C558.604 440.386 550.594 447.864 543.032 455.469L498.26 500.922C490.005 494.215 482.269 486.041 474.746 478.454L463.839 467.843L474.269 457.59C481.669 463.685 491.376 474.064 497.768 481.132C504.116 473.762 512.072 466.163 519.033 459.207C531.125 447.327 542.955 435.183 554.516 422.785Z"/>
    <path fill="#8CE2C8" d="M726.418 514.645L727.776 514.508L728.464 515.192C728.975 524.858 728.108 537.007 726.826 546.659C718.723 607.694 687.422 658.344 639.156 695.777C632.636 683.704 626.412 671.474 620.49 659.098C607.729 633.206 593.791 607.111 582.398 580.635C590.465 570.394 602.982 554.551 611.767 545.326C649.46 536.398 687.947 522.289 726.418 514.645Z"/>
    <path fill="#8CE2C8" d="M573.657 590.855C584.289 611.384 594.671 632.041 604.802 652.822C612.95 669.446 621.166 686.945 629.953 703.148C581.814 731.93 536.9 742.665 481.191 735.917C479.481 710.126 476.937 697.104 465.355 673.33C457.981 658.335 448.497 647.369 437.659 635.065C441.933 630.454 461.277 616.167 466.696 612.952C473.609 622.286 485.393 638.715 490.694 648.978C485.593 659.266 481.501 670.667 487.665 681.738C495.05 695.002 513.572 699.11 526.454 691.444C532.495 687.878 536.871 682.057 538.619 675.263C541.018 665.730 537.302 658.039 532.502 650.186C541.729 633.815 561.108 605.567 573.657 590.855Z"/>
    <path fill="#8CE2C8" d="M399.502 529.431C402.062 531.523 414.682 548.936 418.207 553.337C431.761 570.268 446.323 586.795 459.77 603.703C448.678 611.443 435.896 621.797 425.008 630.15C406.552 644.362 387.963 658.401 369.243 672.263L362.386 677.045C337.166 652.903 329.581 637.204 313.403 606.767C320.885 606.011 328.824 603.935 336.123 602.07C372.031 592.893 387.91 561.919 399.502 529.431Z"/>
    <path fill="#8CE2C8" d="M673.803 377.339C674.651 377.454 675.229 377.456 675.869 378.15C707.404 412.358 723.66 456.347 727.954 502.136C712.28 505.638 693.337 511.366 677.621 515.693C672.705 517.079 667.799 518.5 662.902 519.954C659.06 511.448 655.019 503.033 650.784 494.716C641.801 476.706 639.064 473.235 639.896 452.875C640.383 440.963 632.966 420.356 627.859 409.086C640.916 398.3 659.57 387.768 673.803 377.339Z"/>
    <path fill="#8CE2C8" d="M398.572 333.982C401.431 336.186 416.866 366.1 420.179 371.862C418.758 374.023 414.003 379.452 412.087 381.725C406.27 388.628 402.324 394.114 397.99 402.194C384.909 426.578 380.506 455.108 384.571 482.406C385.606 489.355 387.593 495.805 389.566 502.481C371.485 508.005 365.727 500.896 354.839 488.503L328.211 456.185C324.063 451.148 316.044 440.907 311.449 437.059C328.757 393.45 359.699 359.738 398.572 333.982Z"/>
    <path fill="#8CE2C8" d="M307.475 449.176C310.418 451.474 314.615 457.652 317.573 460.937C331.867 476.81 346.519 498.953 362.845 512.164C370.28 518.18 383.065 516.459 391.669 514.702C385.911 535.881 376.016 559.83 360.819 575.767C345.415 589.388 328.637 593.698 308.376 595.721C292.009 543.452 288.613 501.804 307.475 449.176Z"/>
    <path fill="#8CE2C8" d="M501.001 301.703C511.547 300.258 533.401 302.974 544.364 303.613C546.25 306.786 550.471 316.485 552.082 320.172C555.349 327.647 560.288 337.397 562.818 344.933C528.967 330.07 496.037 331.196 461.799 344.499C449.854 348.979 439.842 356.443 429.487 363.666C423.292 354.864 414.047 337.752 409.213 328.008C435.629 311.17 470.274 304.363 501.001 301.703Z"/>
    <path fill="#8CE2C8" d="M427.544 642.369C428.611 642.75 428.842 642.837 429.765 643.655C446.902 658.831 460.328 682.895 466.012 704.913C467.973 712.511 469.331 725.397 470.16 733.219C452.526 729.421 443.277 727.371 426.626 720.499C405.138 711.271 389.088 699.875 370.927 685.584C378.433 678.892 387.218 672.53 395.301 666.455L427.544 642.369Z"/>
    <path fill="#8CE2C8" d="M557.783 306.094C565.641 308.304 571.527 309.689 579.389 312.379C612.41 323.678 642.211 341.522 666.248 366.969C660.231 372.747 654.694 376.695 647.986 381.589C639.922 387.376 631.38 393.562 623.06 398.922C614.574 386.798 609.289 378.084 598.021 367.766C593.988 364.073 582.106 355.766 580.197 352.762C571.671 339.349 563.965 320.771 557.783 306.094Z"/>
    <path fill="#8CE2C8" d="M637.303 492.331C640.881 495.983 649.861 517.059 652.197 522.827C645.865 524.615 639.118 526.266 632.726 527.942C628.812 529.139 624.621 530.243 620.662 531.359C629.63 520.481 634.335 505.91 637.303 492.331Z"/>
</svg>